<svg width="73" height="26" viewBox="0 0 73 26" fill="none" xmlns="http://www.w3.org/2000/svg">
<path d="M0.392456 2.34473H11.8862C13.1166 2.34473 14.2203 2.47147 15.1973 2.72495C16.1795 2.97843 17.0113 3.34545 17.6925 3.826C18.379 4.30656 18.9044 4.90065 19.2688 5.60828C19.6385 6.31064 19.8233 7.11332 19.8233 8.01635C19.8233 8.81375 19.6834 9.53987 19.4035 10.1947C19.1289 10.8442 18.746 11.4014 18.2549 11.8661C17.7638 12.3255 17.1855 12.682 16.5201 12.9354C15.8548 13.1836 15.1313 13.3077 14.3497 13.3077V13.2285C15.2633 13.2285 16.1109 13.3658 16.8924 13.6404C17.6793 13.915 18.3605 14.3032 18.9361 14.8049C19.5117 15.3013 19.9632 15.898 20.2907 16.5951C20.6181 17.2869 20.7818 18.0526 20.7818 18.8922C20.7818 19.8481 20.5679 20.7036 20.1402 21.4587C19.7177 22.2139 19.121 22.8529 18.35 23.3757C17.5842 23.8985 16.6627 24.2998 15.5854 24.5797C14.5081 24.8596 13.32 24.9995 12.0209 24.9995H0.392456V2.34473ZM6.23835 20.627L6.14329 20.5319H11.7278C12.2559 20.5319 12.7179 20.4844 13.114 20.3894C13.5153 20.289 13.848 20.1385 14.1121 19.9378C14.3814 19.7372 14.5847 19.4811 14.722 19.1695C14.8593 18.8579 14.928 18.4909 14.928 18.0684C14.928 17.6407 14.8593 17.2737 14.722 16.9674C14.5847 16.6611 14.3814 16.4076 14.1121 16.2069C13.848 16.001 13.5153 15.8505 13.114 15.7554C12.7179 15.6551 12.2559 15.6049 11.7278 15.6049H6.14329L6.23835 15.5099V20.627ZM11.1971 11.5809C11.6301 11.5809 12.0209 11.5281 12.3694 11.4225C12.7179 11.3116 13.0163 11.1532 13.2645 10.9472C13.5127 10.736 13.7028 10.4799 13.8348 10.1789C13.9669 9.87256 14.0329 9.52139 14.0329 9.12532C14.0329 8.73982 13.9695 8.40449 13.8428 8.11933C13.716 7.82888 13.5285 7.5886 13.2803 7.39849C13.0374 7.2031 12.7391 7.05788 12.3852 6.96282C12.0367 6.86249 11.638 6.81232 11.1891 6.81232H6.14329L6.23835 6.71726V11.676L6.14329 11.5809H11.1971Z" fill="#395E44"/>
<path d="M21.8101 16.2624C21.8101 15.333 21.9104 14.459 22.1111 13.6404C22.3117 12.8219 22.5995 12.072 22.9745 11.3908C23.3494 10.7043 23.8036 10.0944 24.3369 9.56099C24.8703 9.02235 25.4723 8.5682 26.143 8.19854C26.8136 7.82888 27.5424 7.54635 28.3293 7.35096C29.1161 7.15557 29.9478 7.05788 30.8244 7.05788C31.7011 7.05788 32.5328 7.15557 33.3196 7.35096C34.1065 7.54635 34.8352 7.82888 35.5059 8.19854C36.1766 8.5682 36.7786 9.02235 37.312 9.56099C37.8453 10.0944 38.2995 10.7043 38.6744 11.3908C39.0494 12.072 39.3372 12.8219 39.5378 13.6404C39.7385 14.4537 39.8388 15.3277 39.8388 16.2624C39.8388 17.1918 39.7385 18.0684 39.5378 18.8922C39.3372 19.7108 39.0494 20.4606 38.6744 21.1419C38.2995 21.8231 37.8427 22.433 37.304 22.9717C36.7707 23.5051 36.1687 23.9592 35.498 24.3341C34.8326 24.7038 34.1065 24.9863 33.3196 25.1817C32.5381 25.3771 31.7063 25.4748 30.8244 25.4748C29.9478 25.4748 29.1161 25.3771 28.3293 25.1817C27.5424 24.9863 26.8136 24.7038 26.143 24.3341C25.4776 23.9592 24.8756 23.5051 24.3369 22.9717C23.8036 22.433 23.3494 21.8231 22.9745 21.1419C22.5995 20.4606 22.3117 19.7108 22.1111 18.8922C21.9104 18.0684 21.8101 17.1918 21.8101 16.2624ZM27.3708 16.2624C27.3708 16.9859 27.4474 17.6248 27.6005 18.1793C27.7536 18.7338 27.9781 19.2012 28.2738 19.5814C28.5695 19.9563 28.9313 20.2415 29.359 20.4369C29.7868 20.6323 30.2752 20.73 30.8244 20.73C31.3789 20.73 31.8701 20.6349 32.2978 20.4448C32.7255 20.2494 33.0846 19.9616 33.3751 19.5814C33.6708 19.2012 33.8953 18.7338 34.0484 18.1793C34.2015 17.6248 34.2781 16.9859 34.2781 16.2624C34.2781 15.5389 34.2015 14.8999 34.0484 14.3454C33.8953 13.7909 33.6708 13.3262 33.3751 12.9513C33.0846 12.5711 32.7255 12.2859 32.2978 12.0958C31.8701 11.9004 31.3789 11.8027 30.8244 11.8027C30.2752 11.8027 29.7868 11.9004 29.359 12.0958C28.9313 12.2859 28.5695 12.5711 28.2738 12.9513C27.9781 13.3262 27.7536 13.7909 27.6005 14.3454C27.4474 14.8999 27.3708 15.5389 27.3708 16.2624Z" fill="#395E44"/>
<path d="M46.7633 17.3555V24.9995H41.2501V7.53315H46.7633V13.9415L46.7474 13.9652C46.8794 12.983 47.0775 12.0958 47.3415 11.3037C47.6108 10.5115 47.962 9.8356 48.395 9.27583C48.8281 8.71606 49.3535 8.28567 49.9714 7.98466C50.5892 7.68366 51.3127 7.53315 52.1418 7.53315H53.2983V12.6978H50.9536C50.1298 12.6978 49.4486 12.7902 48.9099 12.9751C48.3713 13.1599 47.9435 13.4424 47.6267 13.8226C47.3098 14.2029 47.0854 14.686 46.9534 15.2722C46.8266 15.8584 46.7633 16.5528 46.7633 17.3555Z" fill="#395E44"/>
<path d="M54.0211 16.2624C54.0211 15.333 54.1214 14.459 54.3221 13.6404C54.5228 12.8219 54.8106 12.072 55.1855 11.3908C55.5605 10.7043 56.0146 10.0944 56.548 9.56099C57.0814 9.02235 57.6834 8.5682 58.354 8.19854C59.0247 7.82888 59.7535 7.54635 60.5403 7.35096C61.3272 7.15557 62.1589 7.05788 63.0355 7.05788C63.9121 7.05788 64.7439 7.15557 65.5307 7.35096C66.3175 7.54635 67.0463 7.82888 67.717 8.19854C68.3876 8.5682 68.9897 9.02235 69.523 9.56099C70.0564 10.0944 70.5105 10.7043 70.8855 11.3908C71.2604 12.072 71.5482 12.8219 71.7489 13.6404C71.9496 14.4537 72.0499 15.3277 72.0499 16.2624C72.0499 17.1918 71.9496 18.0684 71.7489 18.8922C71.5482 19.7108 71.2604 20.4606 70.8855 21.1419C70.5105 21.8231 70.0537 22.433 69.5151 22.9717C68.9817 23.5051 68.3797 23.9592 67.709 24.3341C67.0437 24.7038 66.3175 24.9863 65.5307 25.1817C64.7491 25.3771 63.9174 25.4748 63.0355 25.4748C62.1589 25.4748 61.3272 25.3771 60.5403 25.1817C59.7535 24.9863 59.0247 24.7038 58.354 24.3341C57.6887 23.9592 57.0866 23.5051 56.548 22.9717C56.0146 22.433 55.5605 21.8231 55.1855 21.1419C54.8106 20.4606 54.5228 19.7108 54.3221 18.8922C54.1214 18.0684 54.0211 17.1918 54.0211 16.2624ZM59.5818 16.2624C59.5818 16.9859 59.6584 17.6248 59.8116 18.1793C59.9647 18.7338 60.1891 19.2012 60.4849 19.5814C60.7806 19.9563 61.1423 20.2415 61.5701 20.4369C61.9978 20.6323 62.4863 20.73 63.0355 20.73C63.59 20.73 64.0811 20.6349 64.5089 20.4448C64.9366 20.2494 65.2957 19.9616 65.5862 19.5814C65.8819 19.2012 66.1063 18.7338 66.2595 18.1793C66.4126 17.6248 66.4892 16.9859 66.4892 16.2624C66.4892 15.5389 66.4126 14.8999 66.2595 14.3454C66.1063 13.7909 65.8819 13.3262 65.5862 12.9513C65.2957 12.5711 64.9366 12.2859 64.5089 12.0958C64.0811 11.9004 63.59 11.8027 63.0355 11.8027C62.4863 11.8027 61.9978 11.9004 61.5701 12.0958C61.1423 12.2859 60.7806 12.5711 60.4849 12.9513C60.1891 13.3262 59.9647 13.7909 59.8116 14.3454C59.6584 14.8999 59.5818 15.5389 59.5818 16.2624Z" fill="#395E44"/>
<path d="M30.5569 0.885665L25.811 3.39816C25.6048 3.50732 25.6824 3.81968 25.9157 3.81968H35.0684C35.298 3.81968 35.3787 3.51524 35.1792 3.40153L30.7724 0.889036C30.7058 0.851104 30.6245 0.849833 30.5569 0.885665Z" fill="#395E44"/>
</svg>
