<svg width="574" height="136" viewBox="0 0 574 136" fill="none" xmlns="http://www.w3.org/2000/svg">
<path d="M0.264038 5.75463H51.6301C57.129 5.75463 62.0615 6.32104 66.4275 7.45386C70.8172 8.58667 74.5342 10.2269 77.5787 12.3745C80.6467 14.5222 82.995 17.1772 84.6234 20.3396C86.2754 23.4785 87.1014 27.0657 87.1014 31.1014C87.1014 34.665 86.476 37.9101 85.2252 40.8365C83.998 43.7393 82.2869 46.2292 80.0921 48.306C77.8973 50.3592 75.313 51.9522 72.3394 53.0851C69.3658 54.1943 66.1325 54.7489 62.6397 54.7489V54.3949C66.7225 54.3949 70.5104 55.0085 74.0032 56.2357C77.5197 57.4629 80.5641 59.1975 83.1366 61.4396C85.709 63.658 87.7268 66.3248 89.19 69.4401C90.6533 72.5317 91.3849 75.9538 91.3849 79.7062C91.3849 83.9779 90.429 87.8011 88.5174 91.176C86.6294 94.5508 83.9626 97.4065 80.5169 99.7429C77.0949 102.079 72.9766 103.873 68.1622 105.124C63.3477 106.375 58.0376 107 52.2319 107H0.264038V5.75463ZM26.3896 87.4589L25.9648 87.0341H50.9221C53.2822 87.0341 55.3472 86.8217 57.1172 86.3969C58.9108 85.9485 60.3976 85.2759 61.5777 84.3791C62.7813 83.4823 63.6899 82.3377 64.3035 80.9452C64.9171 79.5528 65.2239 77.9126 65.2239 76.0246C65.2239 74.1129 64.9171 72.4727 64.3035 71.1039C63.6899 69.7351 62.7813 68.6023 61.5777 67.7055C60.3976 66.7851 58.9108 66.1124 57.1172 65.6876C55.3472 65.2392 53.2822 65.015 50.9221 65.015H25.9648L26.3896 64.5902V87.4589ZM48.5503 47.0316C50.4855 47.0316 52.2319 46.7956 53.7896 46.3236C55.3472 45.828 56.6806 45.12 57.7898 44.1995C58.899 43.2555 59.7486 42.1109 60.3386 40.7657C60.9287 39.3969 61.2237 37.8275 61.2237 36.0574C61.2237 34.3346 60.9405 32.836 60.374 31.5616C59.8076 30.2636 58.9698 29.1897 57.8606 28.3401C56.775 27.4669 55.4416 26.8179 53.8604 26.3931C52.3027 25.9447 50.5209 25.7205 48.5149 25.7205H25.9648L26.3896 25.2957V47.4564L25.9648 47.0316H48.5503Z" fill="black"/>
<path d="M95.9803 67.9533C95.9803 63.7996 96.4287 59.8938 97.3255 56.2357C98.2223 52.5777 99.5085 49.2264 101.184 46.182C102.86 43.1139 104.889 40.3881 107.273 38.0045C109.657 35.5972 112.347 33.5676 115.344 31.9156C118.342 30.2636 121.598 29.0009 125.115 28.1277C128.631 27.2545 132.348 26.8179 136.266 26.8179C140.184 26.8179 143.901 27.2545 147.417 28.1277C150.934 29.0009 154.19 30.2636 157.188 31.9156C160.185 33.5676 162.875 35.5972 165.259 38.0045C167.643 40.3881 169.672 43.1139 171.348 46.182C173.024 49.2264 174.31 52.5777 175.207 56.2357C176.103 59.8702 176.552 63.776 176.552 67.9533C176.552 72.1069 176.103 76.0246 175.207 79.7062C174.31 83.3643 173.024 86.7155 171.348 89.76C169.672 92.8044 167.631 95.5302 165.224 97.9375C162.84 100.321 160.15 102.351 157.152 104.026C154.179 105.678 150.934 106.941 147.417 107.814C143.924 108.687 140.207 109.124 136.266 109.124C132.348 109.124 128.631 108.687 125.115 107.814C121.598 106.941 118.342 105.678 115.344 104.026C112.371 102.351 109.68 100.321 107.273 97.9375C104.889 95.5302 102.86 92.8044 101.184 89.76C99.5085 86.7155 98.2223 83.3643 97.3255 79.7062C96.4287 76.0246 95.9803 72.1069 95.9803 67.9533ZM120.831 67.9533C120.831 71.1865 121.174 74.0421 121.858 76.5202C122.542 78.9982 123.545 81.0868 124.867 82.7861C126.189 84.4617 127.805 85.7361 129.717 86.6093C131.629 87.4825 133.812 87.9191 136.266 87.9191C138.744 87.9191 140.939 87.4943 142.851 86.6447C144.762 85.7715 146.367 84.4853 147.665 82.7861C148.987 81.0868 149.99 78.9982 150.674 76.5202C151.358 74.0421 151.701 71.1865 151.701 67.9533C151.701 64.72 151.358 61.8644 150.674 59.3864C149.99 56.9083 148.987 54.8315 147.665 53.1559C146.367 51.4566 144.762 50.1822 142.851 49.3326C140.939 48.4594 138.744 48.0228 136.266 48.0228C133.812 48.0228 131.629 48.4594 129.717 49.3326C127.805 50.1822 126.189 51.4566 124.867 53.1559C123.545 54.8315 122.542 56.9083 121.858 59.3864C121.174 61.8644 120.831 64.72 120.831 67.9533Z" fill="black"/>
<path d="M207.497 72.8385V107H182.859V28.9419H207.497V57.5809L207.427 57.6871C208.017 53.2975 208.902 49.3326 210.082 45.7926C211.285 42.2525 212.855 39.2317 214.79 36.73C216.725 34.2284 219.073 32.305 221.835 30.9598C224.596 29.6146 227.829 28.9419 231.534 28.9419H236.703V52.0231H226.224C222.543 52.0231 219.498 52.4361 217.091 53.2621C214.684 54.0881 212.772 55.3507 211.356 57.0499C209.94 58.7491 208.937 60.9086 208.347 63.5282C207.781 66.1478 207.497 69.2513 207.497 72.8385Z" fill="black"/>
<path d="M239.933 67.9533C239.933 63.7996 240.381 59.8938 241.278 56.2357C242.175 52.5777 243.461 49.2264 245.137 46.182C246.812 43.1139 248.842 40.3881 251.226 38.0045C253.609 35.5972 256.3 33.5676 259.297 31.9156C262.294 30.2636 265.551 29.0009 269.068 28.1277C272.584 27.2545 276.301 26.8179 280.219 26.8179C284.136 26.8179 287.853 27.2545 291.37 28.1277C294.886 29.0009 298.143 30.2636 301.14 31.9156C304.138 33.5676 306.828 35.5972 309.212 38.0045C311.595 40.3881 313.625 43.1139 315.301 46.182C316.976 49.2264 318.262 52.5777 319.159 56.2357C320.056 59.8702 320.504 63.776 320.504 67.9533C320.504 72.1069 320.056 76.0246 319.159 79.7062C318.262 83.3643 316.976 86.7155 315.301 89.76C313.625 92.8044 311.584 95.5302 309.176 97.9375C306.793 100.321 304.102 102.351 301.105 104.026C298.131 105.678 294.886 106.941 291.37 107.814C287.877 108.687 284.16 109.124 280.219 109.124C276.301 109.124 272.584 108.687 269.068 107.814C265.551 106.941 262.294 105.678 259.297 104.026C256.323 102.351 253.633 100.321 251.226 97.9375C248.842 95.5302 246.812 92.8044 245.137 89.76C243.461 86.7155 242.175 83.3643 241.278 79.7062C240.381 76.0246 239.933 72.1069 239.933 67.9533ZM264.784 67.9533C264.784 71.1865 265.126 74.0421 265.811 76.5202C266.495 78.9982 267.498 81.0868 268.82 82.7861C270.141 84.4617 271.758 85.7361 273.67 86.6093C275.581 87.4825 277.764 87.9191 280.219 87.9191C282.697 87.9191 284.892 87.4943 286.803 86.6447C288.715 85.7715 290.32 84.4853 291.618 82.7861C292.939 81.0868 293.942 78.9982 294.627 76.5202C295.311 74.0421 295.653 71.1865 295.653 67.9533C295.653 64.72 295.311 61.8644 294.627 59.3864C293.942 56.9083 292.939 54.8315 291.618 53.1559C290.32 51.4566 288.715 50.1822 286.803 49.3326C284.892 48.4594 282.697 48.0228 280.219 48.0228C277.764 48.0228 275.581 48.4594 273.67 49.3326C271.758 50.1822 270.141 51.4566 268.82 53.1559C267.498 54.8315 266.495 56.9083 265.811 59.3864C265.126 61.8644 264.784 64.72 264.784 67.9533Z" fill="black"/>
<path d="M377.788 69.2631V28.9419H402.427V107H377.788V82.6799L377.859 82.5737C377.127 86.9397 376.006 90.7748 374.496 94.0788C372.985 97.3829 371.109 100.156 368.867 102.398C366.625 104.616 364.017 106.292 361.044 107.425C358.07 108.558 354.766 109.124 351.131 109.124C347.025 109.124 343.438 108.416 340.37 107C337.302 105.56 334.729 103.425 332.652 100.593C330.599 97.7369 329.053 94.185 328.015 89.937C326.976 85.6889 326.457 80.7564 326.457 75.1396V28.9419H351.096V69.8295C351.096 72.8739 351.356 75.529 351.875 77.7946C352.394 80.0366 353.185 81.9129 354.247 83.4233C355.309 84.9337 356.63 86.0665 358.211 86.8217C359.816 87.5533 361.693 87.9191 363.84 87.9191C365.351 87.9191 366.731 87.7421 367.982 87.3881C369.256 87.0105 370.413 86.4795 371.451 85.7951C372.49 85.0871 373.398 84.2139 374.177 83.1755C374.98 82.1135 375.64 80.898 376.16 79.5292C376.702 78.1368 377.104 76.591 377.363 74.8918C377.646 73.1689 377.788 71.2927 377.788 69.2631Z" fill="black"/>
<path d="M464.78 28.9419H489.419V98.3977C489.419 104.203 488.51 109.419 486.693 114.045C484.876 118.694 482.268 122.635 478.87 125.868C475.471 129.125 471.329 131.615 466.444 133.338C461.582 135.084 456.095 135.958 449.983 135.958C446.065 135.958 442.384 135.604 438.938 134.896C435.516 134.211 432.365 133.22 429.486 131.922C426.607 130.624 424.022 129.043 421.733 127.178C419.444 125.314 417.497 123.19 415.892 120.806C414.311 118.446 413.096 115.862 412.246 113.053C411.42 110.245 411.007 107.236 411.007 104.026H435.539C435.539 106.103 435.87 107.968 436.531 109.62C437.191 111.272 438.135 112.676 439.363 113.832C440.59 114.989 442.053 115.874 443.752 116.487C445.475 117.125 447.399 117.443 449.523 117.443C451.93 117.443 454.077 117.018 455.966 116.169C457.854 115.319 459.447 114.092 460.745 112.487C462.066 110.882 463.069 108.912 463.754 106.575C464.438 104.215 464.78 101.537 464.78 98.5393V78.184L464.886 78.0778C464.108 82.0191 462.975 85.5001 461.488 88.5209C460.025 91.5418 458.231 94.0788 456.107 96.132C454.007 98.1853 451.576 99.7429 448.815 100.805C446.077 101.867 443.033 102.398 439.681 102.398C436.684 102.398 433.84 101.985 431.15 101.159C428.459 100.309 425.981 99.0939 423.716 97.5127C421.45 95.9314 419.409 94.0198 417.591 91.7778C415.798 89.5122 414.264 86.9633 412.989 84.1313C411.739 81.2992 410.771 78.2076 410.086 74.8564C409.402 71.5051 409.06 67.9415 409.06 64.1654C409.06 60.3894 409.402 56.8493 410.086 53.5453C410.771 50.2412 411.739 47.2086 412.989 44.4473C414.264 41.6861 415.798 39.2199 417.591 37.0487C419.409 34.8538 421.45 33.0012 423.716 31.4908C425.981 29.9804 428.459 28.8239 431.15 28.0215C433.84 27.2191 436.684 26.8179 439.681 26.8179C443.033 26.8179 446.077 27.3253 448.815 28.3401C451.576 29.3313 454.018 30.8182 456.143 32.8006C458.267 34.7594 460.06 37.2021 461.523 40.1285C462.987 43.0549 464.108 46.4652 464.886 50.3592L464.78 50.253V28.9419ZM464.78 64.1654C464.78 62.3246 464.627 60.649 464.32 59.1385C464.013 57.6045 463.565 56.2357 462.975 55.0321C462.385 53.8285 461.641 52.7783 460.745 51.8815C459.871 50.9846 458.845 50.2412 457.665 49.6512C456.508 49.0612 455.21 48.6246 453.771 48.3414C452.355 48.0346 450.797 47.8812 449.098 47.8812C446.596 47.8812 444.39 48.1998 442.478 48.837C440.59 49.4742 439.009 50.4654 437.734 51.8106C436.46 53.1323 435.504 54.8197 434.867 56.8729C434.23 58.9025 433.911 61.3334 433.911 64.1654C433.911 66.9975 434.23 69.4873 434.867 71.6349C435.528 73.7825 436.483 75.5762 437.734 77.0158C439.009 78.4318 440.59 79.5056 442.478 80.2372C444.39 80.9688 446.596 81.3346 449.098 81.3346C450.797 81.3346 452.355 81.1694 453.771 80.839C455.21 80.485 456.508 79.9894 457.665 79.3522C458.845 78.6914 459.871 77.8772 460.745 76.9096C461.641 75.9184 462.385 74.7974 462.975 73.5465C463.565 72.2721 464.013 70.8561 464.32 69.2985C464.627 67.7173 464.78 66.0062 464.78 64.1654Z" fill="black"/>
<path d="M521.953 66.6788V107H497.314V2.21459H521.953V53.2621L521.882 53.3683C522.614 49.0022 523.735 45.1672 525.245 41.8631C526.756 38.5591 528.632 35.7978 530.874 33.5794C533.116 31.3374 535.724 29.65 538.698 28.5171C541.671 27.3843 544.975 26.8179 548.61 26.8179C552.716 26.8179 556.303 27.5377 559.371 28.9773C562.439 30.3934 565 32.5292 567.053 35.3848C569.13 38.2169 570.688 41.7569 571.726 46.005C572.765 50.253 573.284 55.1855 573.284 60.8024V107H548.645V66.1124C548.645 63.068 548.385 60.4248 547.866 58.1827C547.347 55.9171 546.556 54.0291 545.494 52.5187C544.432 51.0082 543.099 49.8872 541.494 49.1556C539.913 48.4004 538.049 48.0228 535.901 48.0228C534.39 48.0228 532.998 48.2116 531.724 48.5892C530.473 48.9432 529.328 49.4742 528.29 50.1822C527.251 50.8666 526.331 51.7398 525.529 52.8019C524.75 53.8403 524.089 55.0557 523.546 56.4481C523.027 57.8169 522.626 59.3628 522.342 61.0856C522.083 62.7848 521.953 64.6492 521.953 66.6788Z" fill="black"/>
<path d="M279.947 0.95984L258.738 12.1883C257.816 12.6762 258.163 14.0721 259.206 14.0721H300.11C301.136 14.0721 301.496 12.7115 300.605 12.2034L280.91 0.974901C280.613 0.805384 280.25 0.799703 279.947 0.95984Z" fill="black"/>
</svg>
