<svg width="292" height="260" viewBox="0 0 292 260" fill="none" xmlns="http://www.w3.org/2000/svg">
<path d="M213.579 115.922L212.117 114.46L210.079 114.807C197.196 117 183.518 113.161 173.579 103.222L154.529 84.1716C147.775 77.4185 144 68.3346 144 58.8V52.75V50.3762L141.916 49.2389L102.07 27.491C102.07 27.4906 102.069 27.4902 102.068 27.4898C100.728 26.7553 99.9227 25.3241 99.9953 23.8465C100.073 22.2645 100.991 20.9239 102.379 20.3035C102.379 20.3032 102.38 20.3029 102.381 20.3026L125.969 9.80787C134.659 5.98328 144.058 4 153.6 4H162.65C179.981 4 196.651 10.6112 209.259 22.4633C209.26 22.4636 209.26 22.464 209.26 22.4644L231.557 43.4614C242.594 53.8593 246.705 68.8636 243.692 82.6987L243.229 84.8255L244.763 86.3695L252.663 94.3195L255.491 97.1658L258.329 94.3284L262.329 90.3284C265.475 87.1821 270.53 87.204 273.607 90.3133L273.614 90.3209L273.622 90.3284L285.622 102.328C288.768 105.475 288.746 110.53 285.637 113.606L285.629 113.614L285.622 113.622L241.622 157.622C238.475 160.768 233.42 160.746 230.344 157.637L230.336 157.629L230.329 157.622L218.329 145.622C215.182 142.475 215.204 137.42 218.313 134.344L218.321 134.336L218.329 134.328L222.329 130.328L225.157 127.5L222.329 124.672L213.579 115.922Z" stroke="black" stroke-width="8"/>
<path d="M134.45 91.2998L17.7 188.55C9.05 195.8 4 206.55 4 217.85C4 238.9 21.05 256 42.15 256C53.45 256 64.2 251 71.45 242.3L169 125.2" stroke="black" stroke-width="8"/>
</svg>
