<svg xmlns="http://www.w3.org/2000/svg" version="1.1" viewBox="-5.0 -10.0 110.0 135.0">
 <path d="m58.809 30.199v-6.0898c0-0.37109 0.30078-0.67188 0.67188-0.67188h5.1094c0.37109 0 0.66016 0.28906 0.67188 0.66016h0.011719c0.058593 1.2383 1.0781 2.2305 2.3281 2.2305h5.8906c1.2891 0 2.3516-1.0508 2.3516-2.3516v-11.328c0-1.2891-1.0508-2.3516-2.3516-2.3516h-5.8906c-1.25 0-2.2695 0.98828-2.3281 2.2305h-0.011719c-0.011719 0.37109-0.30078 0.64844-0.67188 0.64844h-5.1211c-0.35938 0-0.66016-0.30078-0.66016-0.66016 0-1.3906-1.1289-2.5312-2.5312-2.5312h-6.3516c-4.1992 0-8.3008 0.76953-12.211 2.3008-6.3008 2.4609-11.191 7.5312-13.43 13.922-0.39062 1.1094 0.050782 2.3008 1.0703 2.8906 1.0312 0.60156 2.2891 0.39062 3.0703-0.51172 2.8203-3.25 6.5-5.5508 10.648-6.6406 1-0.26172 1.9297-0.10937 2.6211 0.42188 0.71094 0.55078 1.1016 1.4297 1.1016 2.4883v5.3203c0 0.94922 0.53125 1.7695 1.3086 2.1992l-1.0781 52.648c-0.03125 1.3086 0.46094 2.5586 1.3906 3.5 0.92969 0.94141 2.1484 1.4609 3.4688 1.4609h5.8281c1.3086 0 2.5508-0.51953 3.4688-1.4609 0.92188-0.94141 1.4102-2.1797 1.3906-3.5l-1.0781-52.648c0.78125-0.42969 1.3086-1.25 1.3086-2.1992zm8.4531-17.539c0-0.19141 0.16016-0.35156 0.35156-0.35156h5.8906c0.19141 0 0.35156 0.16016 0.35156 0.35156v11.328c0 0.19141-0.16016 0.35156-0.35156 0.35156h-5.8906c-0.19141 0-0.35156-0.16016-0.35156-0.35156zm-11.5 74.48c-0.53906 0.55078-1.2617 0.85938-2.0391 0.85938h-5.8281c-0.76953 0-1.5-0.30078-2.0391-0.85938-0.53906-0.55859-0.82812-1.2812-0.80859-2.0508l0.28125-13.641h10.98l0.28125 13.641c0.019531 0.76953-0.26953 1.5-0.80859 2.0508zm-10.41-17.691 0.75-36.719h9.3984l0.75 36.719zm11.457-45.34v6.0898c0 0.28906-0.23828 0.53125-0.53125 0.53125h-10.961c-0.28906 0-0.51953-0.23828-0.51953-0.53125v-5.3203c0-1.6719-0.67969-3.1602-1.8789-4.0781-1.1992-0.92188-2.7383-1.1992-4.3516-0.78125-4.5391 1.1914-8.5703 3.6992-11.648 7.2617-0.19922 0.23828-0.42969 0.16016-0.55078 0.089844-0.14063-0.078125-0.28125-0.23047-0.19141-0.5 2.0508-5.8281 6.5195-10.469 12.27-12.711 3.6719-1.4414 7.5391-2.1719 11.48-2.1719h6.3516c0.28906 0 0.53125 0.23828 0.53125 0.53125 0 1.4688 1.1914 2.6602 2.6602 2.6602h5.1211c0.23047 0 0.46094-0.039063 0.67188-0.089844v6.4414c-0.21875-0.058594-0.44141-0.089844-0.67188-0.089844h-5.1094c-1.4688 0-2.6719 1.1992-2.6719 2.6719z"/>
</svg>